<?xml version="1.0" encoding="utf-8"?>
<svg version="1.1" id="favicon" xmlns="http://www.w3.org/2000/svg" xmlns:xlink="http://www.w3.org/1999/xlink" x="0px" y="0px"
	 viewBox="0 0 256 256" xml:space="preserve">
<g id="wallet-back">
	<path fill="#830E14" d="M241.17,71.98h-16.5c0,0-12.8,20.64-27.04,45.81c-15.29,27.03-31.37,55.93-31.37,55.93
			c-0.53,0.91-1.36,0.98-2.07,0.29c-0.17-0.13-0.34-0.3-0.48-0.54c0,0-74.99,20.02-76.1,20.02h83.46c5.24,0,11.94-4.25,14.96-9.49
			l59.14-102.53C248.21,76.23,246.41,71.98,241.17,71.98z M219.38,71.98h-61.66c-5.24,0-11.94,4.25-14.96,9.49l-13.35,23.15
			l35.68,61.71L219.38,71.98z"/>
</g>
<g id="wallet-inner-back">
	<path fill="#FFEAEA" d="M209.07,60.51h-60.09c-3.77,0-8.59,3.06-10.77,6.84l-42.58,73.82c-2.18,3.78-0.89,6.84,2.89,6.84h60.09
			c3.77,0,8.59-3.06,10.77-6.84l42.58-73.82C214.13,63.57,212.84,60.51,209.07,60.51z"/>
</g>
<g id="wallet-inner-front">
	<path fill="#EACCCC" d="M157.33,140.49h-0.05l-42.29-73.14c-2.18-3.78-7.02-6.84-10.8-6.84H43.94c-3.78,0-5.08,3.06-2.89,6.84
			l42.69,73.82c2.18,3.78,7.02,6.84,10.8,6.84h64.07c8.15,0,11.17-7.52,11.17-7.52S161.66,147.53,157.33,140.49z M64.52,97.43
			c-3.32,0-7.17-2.04-8.6-4.56c-1.44-2.52,0.09-4.56,3.4-4.56s7.17,2.04,8.6,4.56C69.36,95.39,67.84,97.43,64.52,97.43z"/>
</g>
<g id="wallet-front">
	<path fill="#9B1120" d="M169.31,183.06h-0.07L110.51,81.47c-3.03-5.24-9.75-9.49-15-9.49H11.84c-5.25,0-7.05,4.25-4.02,9.49
			l59.29,102.53c3.03,5.24,9.75,9.49,15,9.49h88.98c11.46,0,15.2-10.44,15.2-10.44C182.38,189.4,173.22,189.4,169.31,183.06z
			 M64.52,97.43c-3.32,0-7.17-2.04-8.6-4.56c-1.44-2.52,0.09-4.56,3.4-4.56s7.17,2.04,8.6,4.56C69.36,95.39,67.84,97.43,64.52,97.43
			z"/>
</g>
</svg>
