<?xml version="1.0" encoding="utf-8"?>
<!DOCTYPE svg PUBLIC "-//W3C//DTD SVG 1.1//EN" "http://www.w3.org/Graphics/SVG/1.1/DTD/svg11.dtd">
<svg version="1.1" xmlns="http://www.w3.org/2000/svg" xmlns:xlink="http://www.w3.org/1999/xlink" x="0px" y="0px" width="64px" height="64px" viewBox="0 0 64 64" xml:space="preserve">
    <g id="android">
        <path fill="#fff" fill-rule="evenodd" clip-rule="evenodd" d="M17.36,33.616v11.67c0,0.898,0.588,1.823,1.49,1.823h3.738v6.772
				c0,1.732,1.398,3.126,3.137,3.126c1.738,0,3.137-1.394,3.137-3.126v-6.772h6.405v6.772c0,0.978,0.445,1.85,1.15,2.423
				c0.51,0.442,1.189,0.703,1.922,0.703c0.013,0,0.025,0,0.039,0c0.013,0,0.013,0,0.025,0c1.738,0,3.138-1.394,3.138-3.126v-6.772
				h3.607c0.915,0,1.49-0.925,1.49-1.811v-11.67v-9.964H17.36V33.616z M51.868,21.582c-1.739,0-3.138,1.394-3.138,3.125v12.504
				c0,1.732,1.398,3.126,3.138,3.126c1.738,0,3.137-1.394,3.137-3.126V24.707C55.005,22.976,53.606,21.582,51.868,21.582z
				 M12.132,21.582c-1.738,0-3.137,1.394-3.137,3.125v12.504c0,1.732,1.398,3.126,3.137,3.126c1.739,0,3.137-1.394,3.137-3.126
				V24.707C15.269,22.976,13.871,21.582,12.132,21.582z M39.215,10.264l2.418-2.853c0.053-0.065-0.025-0.208-0.17-0.325
				C41.32,6.981,41.15,6.955,41.11,7.033l-2.509,2.97c-1.778-0.703-3.948-1.146-6.615-1.146c-2.68-0.013-4.862,0.417-6.64,1.107
				l-2.483-2.918c-0.052-0.064-0.209-0.052-0.353,0.053c-0.144,0.104-0.222,0.234-0.17,0.325l2.392,2.813
				c-6.3,2.722-7.241,9.403-7.372,11.357h29.228C46.47,19.628,45.541,13.037,39.215,10.264z M25.569,16.75
				c-0.967,0-1.765-0.782-1.765-1.732c0-0.951,0.785-1.732,1.765-1.732c0.967,0,1.765,0.781,1.765,1.732
				C27.333,15.968,26.549,16.75,25.569,16.75z M38.432,16.75c-0.968,0-1.766-0.782-1.766-1.732c0-0.951,0.785-1.732,1.766-1.732
				c0.967,0,1.764,0.781,1.764,1.732C40.195,15.968,39.398,16.75,38.432,16.75z" />
    </g>
</svg>
