<?xml version="1.0" encoding="utf-8"?>
<!DOCTYPE svg PUBLIC "-//W3C//DTD SVG 1.1//EN" "http://www.w3.org/Graphics/SVG/1.1/DTD/svg11.dtd">
<svg version="1.1" xmlns="http://www.w3.org/2000/svg" xmlns:xlink="http://www.w3.org/1999/xlink" x="0px" y="0px" width="64px" height="64px" viewBox="0 0 64 64" xml:space="preserve">
    <g id="apple">
        <path fill="#fff" fill-rule="evenodd" clip-rule="evenodd" d="M31.46,20.554l0.388,0.03c1.268,0.099,2.54-0.199,3.701-0.754
				c1.266-0.604,2.402-1.514,3.254-2.544v-0.001c0.845-1.024,1.545-2.256,1.978-3.584c0.397-1.218,0.571-2.52,0.428-3.823
				l-0.049-0.445l-0.446,0.019c-1.18,0.048-2.477,0.436-3.684,1.057c-1.203,0.619-2.327,1.473-3.165,2.454h0.001
				c-0.811,0.938-1.564,2.177-2.031,3.534c-0.4,1.166-0.59,2.427-0.426,3.672L31.46,20.554z M50.102,41.883l-0.012-0.005h-0.002
				c-0.291-0.119-5.561-2.273-5.615-8.489c-0.051-5.155,4.082-7.713,4.51-7.978c0.037-0.023,0.016-0.009,0.038-0.022l0.414-0.268
				l-0.277-0.406c-1.052-1.538-2.33-2.564-3.591-3.248c-1.979-1.072-3.916-1.295-4.846-1.335c-2.213-0.221-4.307,0.604-6.018,1.279
				c-1.013,0.399-1.882,0.742-2.472,0.742c-0.667,0-1.558-0.354-2.557-0.75c-1.412-0.56-3.025-1.2-4.737-1.169
				c-1.954,0.029-3.832,0.595-5.473,1.59c-1.649,0.999-3.059,2.432-4.068,4.187c-1.808,3.136-2.201,6.934-1.73,10.672
				c0.572,4.546,2.422,9.016,4.549,12.087c0.942,1.363,1.977,2.812,3.157,3.918c1.234,1.155,2.623,1.937,4.224,1.877h0.001
				c1.387-0.056,2.349-0.466,3.344-0.89c1.058-0.45,2.155-0.918,3.872-0.918c1.635,0,2.679,0.452,3.684,0.887
				c1.053,0.456,2.066,0.895,3.613,0.865c1.643-0.03,2.972-0.766,4.136-1.854c1.124-1.052,2.076-2.415,3.011-3.779
				c2.059-3.01,2.971-5.93,3.105-6.36c0.012-0.04,0.002-0.013,0.011-0.038l0.142-0.423L50.102,41.883z" />
    </g>
</svg>
