<?xml version="1.0" encoding="utf-8"?>
    <!DOCTYPE svg PUBLIC "-//W3C//DTD SVG 1.1//EN" "http://www.w3.org/Graphics/SVG/1.1/DTD/svg11.dtd">
    <svg version="1.1" id="instagram_1_" xmlns="http://www.w3.org/2000/svg" xmlns:xlink="http://www.w3.org/1999/xlink" x="0px" y="0px" width="30px" height="30px" viewBox="0 0 30 30" xml:space="preserve">
        <g id="instagram">
            <path fill="#fff" d="M27.409,9.847c-0.058-1.331-0.271-2.238-0.579-3.029
			c-0.318-0.82-0.743-1.515-1.438-2.21c-0.695-0.694-1.39-1.119-2.21-1.438c-0.791-0.309-1.708-0.521-3.03-0.579
			C18.821,2.533,18.396,2.514,15,2.514s-3.821,0.01-5.153,0.077C8.516,2.648,7.608,2.861,6.817,3.17
			c-0.82,0.318-1.515,0.743-2.21,1.438c-0.695,0.695-1.119,1.39-1.438,2.21C2.861,7.608,2.649,8.525,2.591,9.847
			C2.533,11.179,2.514,11.604,2.514,15s0.01,3.821,0.077,5.152c0.058,1.332,0.27,2.239,0.579,3.03
			c0.318,0.82,0.743,1.515,1.438,2.21c0.695,0.694,1.39,1.119,2.21,1.438c0.791,0.309,1.708,0.521,3.03,0.579
			c1.332,0.058,1.756,0.077,5.153,0.077s3.821-0.01,5.152-0.077c1.332-0.058,2.239-0.271,3.03-0.579
			c0.82-0.318,1.515-0.743,2.21-1.438c0.694-0.695,1.119-1.39,1.438-2.21c0.309-0.791,0.521-1.708,0.579-3.03
			c0.058-1.331,0.077-1.756,0.077-5.152S27.477,11.179,27.409,9.847z M25.161,20.047c-0.058,1.216-0.261,1.882-0.435,2.315
			c-0.222,0.579-0.502,1.004-0.936,1.438c-0.435,0.435-0.85,0.705-1.438,0.937c-0.443,0.174-1.1,0.376-2.315,0.435
			c-1.322,0.058-1.708,0.077-5.047,0.077s-3.734-0.01-5.046-0.077c-1.216-0.059-1.882-0.261-2.316-0.435
			C7.049,24.515,6.625,24.234,6.19,23.8c-0.434-0.434-0.704-0.849-0.936-1.438c-0.173-0.443-0.376-1.1-0.434-2.315
			C4.762,18.725,4.743,18.329,4.743,15s0.01-3.734,0.077-5.047c0.058-1.216,0.261-1.882,0.434-2.315
			C5.476,7.059,5.756,6.634,6.19,6.2c0.435-0.435,0.849-0.705,1.438-0.937c0.444-0.174,1.1-0.376,2.316-0.435
			c1.322-0.058,1.717-0.077,5.046-0.077s3.734,0.01,5.047,0.077c1.216,0.059,1.882,0.261,2.315,0.435
			c0.579,0.222,1.004,0.502,1.438,0.937c0.434,0.434,0.704,0.849,0.936,1.438c0.174,0.443,0.377,1.1,0.435,2.315
			c0.058,1.322,0.077,1.718,0.077,5.047S25.219,18.734,25.161,20.047z M14.99,8.583c-3.541,0-6.417,2.876-6.417,6.417
			s2.876,6.417,6.417,6.417s6.417-2.876,6.417-6.417S18.531,8.583,14.99,8.583z M14.99,19.169c-2.297,0-4.168-1.862-4.168-4.169
			c0-2.297,1.862-4.169,4.168-4.169c2.307,0,4.169,1.862,4.169,4.169C19.159,17.297,17.287,19.169,14.99,19.169z M21.658,6.837
			c-0.825,0-1.496,0.669-1.496,1.495c0,0.825,0.671,1.496,1.496,1.496s1.495-0.671,1.495-1.496
			C23.153,7.506,22.483,6.837,21.658,6.837z" />
        </g>
    </svg>
