<?xml version="1.0" encoding="utf-8"?>
<!DOCTYPE svg PUBLIC "-//W3C//DTD SVG 1.1//EN" "http://www.w3.org/Graphics/SVG/1.1/DTD/svg11.dtd">
<svg version="1.1" id="iphone_1_" xmlns="http://www.w3.org/2000/svg" xmlns:xlink="http://www.w3.org/1999/xlink" x="0px" y="0px" width="500px" height="1000px" viewBox="0 0 500 1000" xml:space="preserve">
    <g id="iphone">

        <path fill="#830e14" d="M497.371,258.951h-11.62c-0.618,0-1.116,0.498-1.116,1.116
			v113.124c0,0.618,0.498,1.116,1.116,1.116h11.62c0.619,0,1.118-0.498,1.118-1.116V260.067
			C498.489,259.449,497.99,258.951,497.371,258.951z M14.248,232.101H2.628c-0.619,0-1.118,0.498-1.118,1.117v71.377
			c0,0.619,0.499,1.117,1.118,1.117h11.62c0.619,0,1.117-0.498,1.117-1.117v-71.377C15.365,232.599,14.867,232.101,14.248,232.101z
			 M14.248,329.584H2.628c-0.619,0-1.118,0.498-1.118,1.116v68.923c0,0.618,0.499,1.116,1.118,1.116h11.62
			c0.619,0,1.117-0.498,1.117-1.116V330.7C15.365,330.082,14.867,329.584,14.248,329.584z M14.248,160.646H2.628
			c-0.617,0-1.118,0.5-1.118,1.116v33.563c0,0.616,0.5,1.115,1.118,1.115h11.62c0.617,0,1.117-0.499,1.117-1.115v-33.563
			C15.365,161.146,14.865,160.646,14.248,160.646z" />

        <path fill="#9b1120" d="M417.668,0.979H82.331c-42.175,0-76.365,34.157-76.365,76.293
			v846.069c0,42.136,34.19,76.294,76.365,76.294h335.337c42.176,0,76.366-34.158,76.366-76.294V77.272
			C494.034,35.137,459.844,0.979,417.668,0.979z M470.582,925.29c0.001,28.848-23.406,52.232-52.279,52.23H81.697
			c-28.873,0.002-52.28-23.383-52.279-52.23V75.321c0.001-28.846,23.407-52.229,52.279-52.228h39.892c6.11,0,9.27,0.632,9.27,10.313
			s6.005,25.996,27.495,25.996h183.293c21.489,0,27.494-16.314,27.494-25.996s3.16-10.313,9.27-10.313h39.893
			c28.872-0.001,52.279,23.382,52.279,52.228V925.29z" />

        <path fill="#e0373a" d="M5.279,110.784h24.139V99.627H5.279V110.784z M5.279,902.128
			h24.139v-11.154H5.279V902.128z M384.603,16.396h11.167v-16.4h-11.167V16.396z M104.23,1000.021h11.167V985.9H104.23V1000.021z
			 M470.582,99.627v11.157h24.139V99.627H470.582z M470.582,902.128h24.139v-11.154h-24.139V902.128z" />

        <path fill="#000" d="M416.383,7.271H83.616c-39.759,0-71.99,32.2-71.99,71.922v842.229
			c0,39.721,32.231,71.922,71.99,71.922h332.767c39.76,0,71.991-32.201,71.991-71.922V79.192
			C488.374,39.471,456.143,7.271,416.383,7.271z M470.582,925.29c0.001,28.848-23.406,52.232-52.279,52.23H81.697
			c-28.873,0.002-52.28-23.383-52.279-52.23V75.321c0.001-28.846,23.407-52.229,52.279-52.228h39.892c6.11,0,9.27,0.632,9.27,10.313
			s6.005,25.996,27.495,25.996h183.293c21.489,0,27.494-16.314,27.494-25.996s3.16-10.313,9.27-10.313h39.893
			c28.872-0.001,52.279,23.382,52.279,52.228V925.29z" />

        <path fill="#333" d="M273.361,31.262h-43.734c-2.554,0-4.61,2.053-4.61,4.605
			c0,2.552,2.056,4.604,4.61,4.604h43.734c2.556,0,4.61-2.053,4.61-4.604C277.972,33.314,275.917,31.262,273.361,31.262z
			 M298.953,32.049c-1.31,0-2.467,0.603-3.247,1.532c0.107-0.065,0.216-0.113,0.315-0.124c1.62,2.47,0.079,4.673-0.294,4.673
			c-0.37,0-1.032-0.821-0.982-2.331c-0.02,0.167-0.051,0.332-0.051,0.505c0,2.349,1.906,4.254,4.259,4.254
			c2.35,0,4.258-1.905,4.258-4.254C303.211,33.953,301.303,32.049,298.953,32.049z M301.057,37.426
			c-0.123,0.042-0.244,0.062-0.363,0.062c-1.087,0-1.937-1.633-1.965-2.295c-0.031-0.735,0.122-2.021,0.918-2.266
			c0.172-0.083,0.346-0.121,0.52-0.121c0.722,0,1.42,0.666,1.84,1.529C302.527,35.406,302.313,36.998,301.057,37.426z
			 M298.953,27.251c-5.006,0-9.061,4.053-9.061,9.053c0,4.999,4.055,9.053,9.061,9.053c5.004,0,9.06-4.054,9.06-9.053
			C308.013,31.304,303.957,27.251,298.953,27.251z M298.953,41.887c-3.088,0-5.59-2.5-5.59-5.583c0-3.084,2.502-5.584,5.59-5.584
			c3.086,0,5.588,2.5,5.588,5.584C304.541,39.387,302.039,41.887,298.953,41.887z" />
    </g>
</svg>
