<?xml version="1.0" encoding="utf-8"?>
<!DOCTYPE svg PUBLIC "-//W3C//DTD SVG 1.1//EN" "http://www.w3.org/Graphics/SVG/1.1/DTD/svg11.dtd">
<svg version="1.1" id="star_1_" xmlns="http://www.w3.org/2000/svg" xmlns:xlink="http://www.w3.org/1999/xlink" x="0px" y="0px" width="60px" height="60px" viewBox="0 0 60 60" xml:space="preserve">
<path fill="#fff" stroke="orange" stroke-width="5" d="M58.311,23.453c-0.213-0.652-0.783-1.084-1.428-1.159c-7.168-0.804-17.916-1.992-17.916-1.992s-4.453-9.854-7.422-16.422 
			c-0.278-0.588-0.862-0.999-1.55-0.999S28.72,3.295,28.455,3.88c-2.972,6.567-7.423,16.422-7.423,16.422s-10.743,1.188-17.91,1.986 
			c-0.647,0.077-1.219,0.509-1.433,1.165c-0.214,0.655,0,1.34,0.477,1.771C7.49,30.084,15.49,37.358,15.49,37.358 
			c-0.006,0-2.196,10.585-3.651,17.647c-0.123,0.638,0.108,1.315,0.666,1.72c0.555,0.405,1.269,0.412,1.83,0.093 
			c6.269-3.559,15.66-8.918,15.66-8.918s9.396,5.359,15.651,8.925c0.571,0.313,1.289,0.306,1.84-0.1
			c0.558-0.404,0.791-1.082,0.664-1.716c-1.454-7.066-3.639-17.651-3.639-17.651s7.998-7.274,13.32-12.124
			C58.311,24.789,58.523,24.105,58.311,23.453z" />
</svg>

