<?xml version="1.0" encoding="utf-8"?>
<!DOCTYPE svg PUBLIC "-//W3C//DTD SVG 1.1//EN" "http://www.w3.org/Graphics/SVG/1.1/DTD/svg11.dtd">
<svg version="1.1" xmlns="http://www.w3.org/2000/svg" xmlns:xlink="http://www.w3.org/1999/xlink" xml:space="preserve" width="30px" height="30px" viewBox="0 0 30 30" preserveAspectRatio="xMidYMid meet">
    <g id="twitter">
        <path fill="#fff" d="M27.562,7.208c-0.923,0.411-1.917,0.688-2.96,0.812
				c1.064-0.638,1.882-1.647,2.267-2.852c-0.996,0.591-2.099,1.02-3.273,1.251c-0.94-1.001-2.279-1.628-3.762-1.628
				c-2.847,0-5.154,2.309-5.154,5.155c0,0.403,0.045,0.796,0.133,1.174c-4.283-0.215-8.082-2.267-10.625-5.386
				C3.743,6.495,3.49,7.381,3.49,8.326c0,1.789,0.91,3.366,2.292,4.29c-0.844-0.026-1.639-0.259-2.334-0.645
				c0,0.021,0,0.043,0,0.065c0,2.497,1.776,4.58,4.135,5.054c-0.433,0.117-0.888,0.181-1.358,0.181c-0.332,0-0.655-0.032-0.97-0.093
				c0.656,2.048,2.56,3.539,4.815,3.579c-1.764,1.384-3.986,2.207-6.402,2.207c-0.416,0-0.826-0.024-1.229-0.072
				c2.282,1.464,4.991,2.316,7.902,2.316c9.481,0,14.665-7.854,14.665-14.666c0-0.224-0.004-0.446-0.015-0.668
				C25.998,9.15,26.872,8.242,27.562,7.208z" />
    </g>
</svg>
