<?xml version="1.0" encoding="utf-8"?>
<!DOCTYPE svg PUBLIC "-//W3C//DTD SVG 1.1//EN" "http://www.w3.org/Graphics/SVG/1.1/DTD/svg11.dtd">
<svg version="1.1" xmlns="http://www.w3.org/2000/svg" xmlns:xlink="http://www.w3.org/1999/xlink" x="0px" y="0px" width="30px" height="30px" viewBox="0 0 30 30" xml:space="preserve">
    <path fill="#fff" fill-rule="evenodd" clip-rule="evenodd" d="M27.903,8.519c-0.309-1.157-1.222-2.069-2.382-2.382
				C23.422,5.575,15,5.575,15,5.575s-8.418,0-10.521,0.562C3.322,6.444,2.409,7.357,2.097,8.519C1.535,10.617,1.535,15,1.535,15
				s0,4.383,0.562,6.481c0.308,1.157,1.221,2.069,2.382,2.382C6.582,24.425,15,24.425,15,24.425s8.422,0,10.521-0.562
				c1.156-0.309,2.069-1.221,2.382-2.382C28.465,19.383,28.465,15,28.465,15S28.465,10.617,27.903,8.519z M12.31,19.04v-8.08
				L19.305,15L12.31,19.04z" />
</svg>
