<?xml version="1.0" encoding="utf-8"?>
<svg version="1.1" id="w-mate" xmlns="http://www.w3.org/2000/svg" xmlns:xlink="http://www.w3.org/1999/xlink" x="0px" y="0px"
	 viewBox="0 0 1280 360" xml:space="preserve">
<g id="wallet-back">
	<path fill="#830E14" d="M421.1,140.7h-29.6c0,0-22.9,37-48.5,82.1c-27.4,48.5-56.3,100.3-56.3,100.3c-0.9,1.6-2.5,1.8-3.7,0.5
		c-0.3-0.2-0.6-0.5-0.9-1c0,0-134.5,35.9-136.4,35.9h149.6c9.4,0,21.4-7.6,26.8-17l106-183.8C433.7,148.3,430.4,140.7,421.1,140.7z
		 M382,140.7H271.4c-9.4,0-21.4,7.6-26.8,17l-23.9,41.5l64,110.6L382,140.7z"/>
</g>
<g id="wallet-inner-back">
	<path fill="#FFEAEA" d="M363.5,120.1H255.7c-6.8,0-15.4,5.5-19.3,12.3l-76.4,132.4c-3.9,6.8-1.6,12.3,5.2,12.3H273
		c6.8,0,15.4-5.5,19.3-12.3l76.4-132.4C372.6,125.6,370.3,120.1,363.5,120.1z"/>
</g>
<g id="wallet-inner-front">
	<path fill="#EACCCC" d="M270.7,263.5L270.7,263.5l-75.9-131.1c-3.9-6.8-12.6-12.3-19.4-12.3h-108c-6.8,0-9.1,5.5-5.2,12.3l76.5,132.4
		c3.9,6.8,12.6,12.3,19.4,12.3H273c14.6,0,20-13.5,20-13.5S278.5,276.2,270.7,263.5z M104.3,186.3c-5.9,0-12.9-3.7-15.4-8.2
		S89,170,95,170s12.9,3.7,15.4,8.2C113,182.7,110.3,186.3,104.3,186.3z"/>
</g>
<g id="wallet-front">
	<path fill="#9B1120" d="M292.2,339.9h-0.1L186.8,157.7c-5.4-9.4-17.5-17-26.9-17H9.8c-9.4,0-12.6,7.6-7.2,17L109,341.6
		c5.4,9.4,17.5,17,26.9,17h159.5c20.5,0,27.3-18.7,27.3-18.7C315.6,351.2,299.2,351.2,292.2,339.9z M104.3,186.3
		c-5.9,0-12.9-3.7-15.4-8.2S89,170,95,170s12.9,3.7,15.4,8.2C113,182.7,110.3,186.3,104.3,186.3z"/>
</g>
<g id="logo">
	<path fill="#333" d="M938.8,334.2c-14.3,8.8-26,9.8-31.9-0.6c-10.2-18,1.2-48,27.2-113c10.5-26.2,31.7-62.3,14.5-66.3
		c-10.6-2.5-19.2,0.1-26.7,6.3c-10.8-12.4-26.8-21-44.7-21.7c-63.7-2.4-106.8,48.5-121.9,77.3c-51.1,97.2-4.9,133.9,21.8,140.3
		c21.8,5.3,58.5-3.5,85.8-25.2c2,5.3,5.2,10.1,9.6,14.2c17.4,16.1,43.9,15.1,70.9,2C964.4,337.5,959.1,321.8,938.8,334.2z
		 M860,312.5c-23.5,23.9-53.6,25-64.9,13.6C752.9,283.3,820,160,883,165.1c9.4,0.7,18.2,5.2,24.1,14.2c-9.2,15.8-16.9,37-25.7,58.7
		C869.6,267,860.4,292.3,860,312.5z M526.2,229.8c-0.1,0.2-0.2,0.4-0.3,0.6C526.1,230.1,526.2,229.9,526.2,229.8z M720.7,337.3
		c-15.6,8.5-28,8.9-33.7-2.4c-10.2-20.3,20.3-84.6,23.1-91.2c15.5-37,20.9-66.1,3.2-86.5c-19.6-22.6-56.7-13.6-80.1-2
		c-4.8,2.4-9,4.6-12.7,6.6c-0.4-0.5-0.9-1.1-1.3-1.6c-19.6-22.6-56.7-13.6-80.1-2c-1.2,0.6-2.3,1.1-3.4,1.7
		c-2.4-6-6.3-11.1-11.9-15.1c-20.5-14.4-28.3,8.1-28.3,8.1c10.1,9.1,2.5,35.1-7.6,58.8c1.4-3.3-25.4,57.1-26.4,59.5
		c-12.8,32.1-17.2,57.9-0.4,75.1c3.1,3.2,14.2,8.5,24,7.4c6.2-0.7,18.9-1.5,10.9-17.5c-7.9-15.8,0.4-39.5,21.3-85.6
		c2.8-6.1,9.6-22.5,8.9-20.8c7.6-19.5,12.5-37.4,12.5-52.3c6.4-2.9,13.5-5.4,21.9-6.9c9.7-0.5,17.6,4,21,10.8
		c6.7,13.5,2.9,22.3-10.7,54.9c-20.2,48.2-37.5,89-14.9,112.2c15.9,16.4,45.1,5.7,36.9-10.7c-10.2-20.3,20.3-84.6,23.1-91.2
		c11.7-27.9,17.7-51.3,12.3-69.9c7.5-3.8,16.1-7.3,26.5-9.1c9.7-0.5,17.6,4,21,10.8c6.7,13.5,2.9,22.3-10.7,54.9
		c-20.2,48.2-37.5,89-14.9,112.2c17.4,17.9,45.5,18.3,74.8,6C747.5,342.1,742.8,325.3,720.7,337.3z M1269.3,85.9
		c-19-23.8-52.2-20.7-94.1-13.7c-35.3,5.9-65.5,11.4-91.3,16.3c8.8-21.2,13.4-32.1,9.1-21.3c10.5-26.2,31.7-62.3,14.5-66.3
		c-17.5-4.1-29.7,5.7-40,22.5c-5.5,8.9-19.5,40.9-33.9,75c-69.4,13.9-91.9,19-99.9,7.3c0,0-14.4,0.8-6.2,15.9
		c11.3,20.8,39.6,22.5,89.9,15.6c-15.8,38.1-27.8,68.1-23.1,56.5c-27.4,67.2-47.8,130.6-25.5,151.1c17.4,16.1,43.9,15.1,70.9,2
		c20.9-10.1,15.6-25.8-4.7-13.3c-14.3,8.8-26,9.8-31.9-0.6c-6-10.6,1.5-41.3,14.9-79.5c7.3-20.9,30.3-77.9,49.3-124.1
		c26.8-4.6,57.8-10.2,93.4-16c56.6-9.2,82.9-12.9,98.7-0.7c9.2,7.1,8.4,16.7,0.8,27.1c-10.7,14.7,3,22.2,11.7,6.6
		C1282.8,126,1283.5,103.7,1269.3,85.9z M1196.7,139.8c-63.7-2.4-106.8,48.5-121.9,77.3c-51.1,97.2-5.3,135.3,21.8,140.3
		c20.3,3.8,44-1.2,62.7-10.8c12.5-6.4,27.6-18.1,39.4-28.9c6-5.5,3.2-10.9-4.7-9.1c-7.2,1.7-19.3,10.5-18.2,9.8
		c-22.7,14.1-49.4,20.5-61.1,8.5c-8.6-8.7-12.7-20.7-13.2-34.3c20.3-7.2,42.6-15.3,67.3-24.6c43.3-16.2,76.3-31.5,81.6-64.9
		C1260.2,140.1,1194.6,139.7,1196.7,139.8z M1225.9,194.8c-4.4,10.5-13.5,18.4-29.4,26.7c-15,7.8-35.9,15.9-64.2,26.7
		c-2.4,0.9-14.4,5.2-26.2,11.1c13.9-47.2,56-96.6,96.3-93.4C1214,166.8,1235,172.7,1225.9,194.8z"/>
</g>
</svg>
